<svg xmlns="http://www.w3.org/2000/svg" viewBox="0 0 335.69 167.84"><defs><style>.cls-1{fill:#5022ed;}</style></defs><g id="Layer_2" data-name="Layer 2"><g id="Layer_1-2" data-name="Layer 1"><path class="cls-1" d="M289.28,8.85,271,35.46a51.76,51.76,0,0,0-19.21-3.68,50.78,50.78,0,0,0-11.49,1.29,12.36,12.36,0,0,0-1.62.4,45.14,45.14,0,0,0-16,7.21A13.84,13.84,0,0,0,221,41.84,51.63,51.63,0,0,0,209.82,53c-12,15.13-21.18,36.68-37,59.36-1.55,2.29-3.21,4.6-5,6.92C151.53,141,134.44,153,120.27,159.57c-1,.49-2.08,1-3.17,1.45a86.1,86.1,0,0,1-8.25,3q-2.71.84-5.5,1.5a83.34,83.34,0,0,1-16,2.21c-1.12,0-2.25.06-3.41.06A84,84,0,0,1,.12,79.36C2.47,35.17,39.43.12,83.68,0A83.49,83.49,0,0,1,142,23.4L123.58,50.15a52.12,52.12,0,1,0-39.66,85.91c1.16,0,2.29,0,3.41-.13a50.39,50.39,0,0,0,20.13-5.53,1.3,1.3,0,0,0,.3-.13c17.88-8.34,32.34-26.75,56.91-69.13q1.59-2.67,3.18-5.46c10.26-17.91,21.78-30.09,32.9-38.37.53-.4,1-.76,1.53-1.12.66-.5,1.35-1,2-1.43q2.43-1.63,4.81-3c2-1.19,4-2.26,5.94-3.22L217,7.58l2.79-1.26c1.22-.5,2.48-1,3.74-1.46a84.23,84.23,0,0,1,65.78,4Z"/><path class="cls-1" d="M335.69,67.93v16a81.35,81.35,0,0,1-.43,8.58c-.26,2.44-.6,4.86-1.09,7.21a83.86,83.86,0,0,1-139.08,46.05l18.31-26.61a52.08,52.08,0,0,0,88.06-19.44H249.39l21.84-31.78Z"/></g></g></svg>