<svg width="66" height="33" viewBox="0 0 66 33" fill="none" xmlns="http://www.w3.org/2000/svg">
<path d="M56.3 1.83507L52.7 7.03507C51.6 6.53507 50.3 6.23507 49 6.23507C48.2 6.23507 47.5 6.33507 46.8 6.53507C46.7 6.53507 46.6 6.53507 46.5 6.63507C45.4 6.93507 44.3 7.33507 43.4 8.03507C43.3 8.13507 43.2 8.13507 43.1 8.23507C42.3 8.83507 41.5 9.53507 40.9 10.4351C38.6 13.3351 36.8 17.5351 33.7 22.0351C33.4 22.4351 33.1 22.9351 32.7 23.3351C30.3 26.6351 27.1 29.3351 23.4 31.1351C23.2 31.2351 23 31.3351 22.8 31.4351C22.3 31.6351 21.7 31.8351 21.2 32.0351C20.8 32.1351 20.5 32.2351 20.1 32.3351C19.1 32.5351 18 32.7351 17 32.7351C16.8 32.7351 16.6 32.7351 16.3 32.7351C7.3 32.7351 0 25.4351 0 16.4351C0 7.43507 7.3 0.135072 16.3 0.135072C20.5 0.135072 24.6 1.73507 27.6 4.73507L24 9.93507C20.4 5.53507 14 5.03507 9.8 8.73507C5.5 12.3351 5 18.7351 8.6 23.0351C10.5 25.3351 13.4 26.6351 16.3 26.6351C16.5 26.6351 16.7 26.6351 17 26.6351C18.4 26.5351 19.7 26.2351 20.9 25.5351C20.9 25.5351 20.9 25.5351 21 25.5351C24.5 23.9351 27.3 20.3351 32.1 12.0351C32.3 11.7351 32.5 11.3351 32.7 10.9351C34.3 8.03507 36.5 5.53507 39.1 3.43507C39.2 3.33507 39.3 3.33507 39.4 3.23507C39.5 3.13507 39.7 3.03507 39.8 2.93507C40.1 2.73507 40.4 2.53507 40.7 2.33507C41.1 2.13507 41.5 1.93507 41.9 1.73507L42.2 1.53507C42.4 1.43507 42.6 1.33507 42.7 1.33507C42.9 1.23507 43.2 1.13507 43.4 1.03507C47.7 -0.464928 52.3 -0.164928 56.3 1.83507Z" fill="white"/>
<path d="M65.3 13.3351V16.4351C65.3 17.0351 65.3 17.5351 65.2 18.1351C65.1 18.6351 65.1 19.0351 65 19.5351C63.3 28.4351 54.8 34.2351 45.9 32.5351C42.9 31.9351 40.2 30.5351 37.9 28.5351L41.5 23.3351C45.3 27.4351 51.7 27.7351 55.8 23.9351C57.1 22.7351 58.1 21.2351 58.6 19.5351H48.5L52.8 13.3351H65.3Z" fill="white"/>
</svg>
